<svg xmlns="http://www.w3.org/2000/svg" fill="currentColor" viewBox="0 0 1400 1400"><path d="M619.57 192.149s-15.82 17.038-107.1 38.945c-91.278 21.907-133.874 27.995-133.874 27.995s-90.064-43.82-153.35-55.99-116.836-9.736-120.487-8.519c0 0 36.512 63.288 57.202 135.094s30.427 124.143 30.427 124.143-26.777 62.068-40.165 120.486-27.994 111.968-27.994 111.968 27.994 77.889 45.033 146.044C186.3 900.47 187.519 950.37 187.519 950.37s-19.475 49.9-36.514 118.055-24.339 149.7-24.339 149.7 11.949-2.55 36.158-2.91a56.42 56.42 0 0 1 5.44-56.432 56.42 56.42 0 0 1 15.074-40.263l309.529-309.553a56.42 56.42 0 0 1 43.33-16.286 56.4 56.4 0 0 1 29.622-7.078l21.995-21.995c-45.442-69.812-73.063-152.416-73.063-241.452 0-128.332 55.102-244.467 142.773-325.966-22.207-2.84-37.955-4.041-37.955-4.041m94.876 699.438-21.51 21.511a56.42 56.42 0 0 1-8.969 32.636 56.42 56.42 0 0 1-16.222 38.106l-265.493 265.493a4418 4418 0 0 1 20.158 4.088s62.07-13.388 116.837-30.427c54.767-17.038 79.104-31.645 79.104-31.645s26.776 2.435 109.536 30.427 142.394 41.377 142.394 41.377 63.287-13.385 126.574-27.99 129.012-38.945 129.012-38.945-3.653-24.344 20.688-119.274 42.596-136.306 42.596-136.306-1.34-10.108-5.68-33.517c-65.757 38.407-142.073 60.48-223.276 60.48-90.907 0-175.056-28.81-245.749-76.014m-197.071 10.578c-.154-.09 2.722 2.407 11.68 2.997l.774-.285c-4.24-.43-8.419-1.34-12.455-2.712zm48.152 1.942a56.4 56.4 0 0 1-13.726 5.533L288.53 1172.912a56.4 56.4 0 0 1-2.846 12.624c1.794 1.907 3.551 3.819 5.359 5.732 2.737.33 5.446.86 8.105 1.586l267.685-267.68a56.4 56.4 0 0 1 6.479-16.24 57 57 0 0 1-.817-2.425 56 56 0 0 1-6.962-2.402z"/><path d="M960.195 133.133c-214.188 0-389.023 174.835-389.023 389.023 0 94.13 33.775 180.647 89.81 248.076l-82.685 82.684c-5.936-5.034-11.702-9.644-16.997-13.569l-14.619 14.619c-4.778-2.906-9.46-4.81-13.907-5.103l-309.54 309.547c2.884 3.878 5.976 7.805 9.207 11.755l-20.753 18.811c23.373 26.222 48.645 52.248 72.824 77.891l23.213-21.971c-.012-.012-.025-.023-.03-.034 3.599 2.999 7.149 5.897 10.6 8.63l309.552-309.547c-1.19-4.758-3.124-9.215-5.545-13.48l15.056-15.057c-3.29-4.848-7.164-9.917-11.447-15.073l82.282-82.282c67.981 58.012 156.032 93.128 252 93.128 214.188 0 389.023-174.836 389.023-389.024s-174.835-389.023-389.023-389.023zm-.006 56.013a333.017 333.017 0 0 1 333.017 333.016 333.017 333.017 0 0 1-333.017 333.016 333.017 333.017 0 0 1-333.016-333.016A333.017 333.017 0 0 1 960.19 189.146"/></svg>