<svg xmlns="http://www.w3.org/2000/svg" viewBox="334 0 151 150"><path fill="#00B262" d="M452.7,13.7c-3.9-1.6-7.9-2.6-12-3c-2.6-2.6-5.4-5-8.5-7.2C439.5,5.8,446.4,9.2,452.7,13.7z M463.4,127.2
	c2.1-2.2,4.1-4.5,6-7c3.4-7.6,5.7-15.7,6.8-24c2.3-0.5,4.4-1.5,6.2-3.1c0.8-3.3,1.4-6.7,1.8-10c-4.7,1.8-9.5,3.1-14.4,4.1
	C469.7,87.1,471.8,109.2,463.4,127.2z M403.8,149.8c0,0-12.7-36.1-13.9-39.2c0,0-33.9,11-38.4,12c1.4,1.7,2.9,3.4,4.5,5
	c4.5,2.1,27.4-3.6,27.5-3.5c3.8,8.7,12,24.6,12,24.6 M387.4,146.7c0,0-5.1-6.8-8.8-12.7c-9.9,0.4-15.2,0.2-15.2,0.2s4.9,3.6,5.7,4.1
	c2.1,0.7,4.3,1.3,6.5,1.5c1.5,1.6,3.2,3.1,5,4.5C383.1,145.3,385.4,146.2,387.4,146.7 M363.2,31.8l-3.8-12.6
	c-2.3,2.1-4.5,4.3-6.6,6.7c-0.5,2.3-0.9,4.7-0.9,7c0,0-9.7,9.3-13.7,18.6c-0.9,2.8-1.7,5.6-2.3,8.4C336,59.9,343.5,45.3,363.2,31.8z
	 M376.3,7.6L376.3,7.6c-2.8,1.4-5.5,2.9-8.1,4.7l0,0c0.9,2.3,4.9,10.4,9.5,21.4c-28.5,14.2-43,32.3-43.2,40.2c0,2.9,0.1,5.7,0.4,8.6
	v-0.1c0.4-9.8,19.7-28,59.3-43.5C384.1,13.9,379.1,7.1,376.3,7.6z M421.3,149.1c-0.4-14.9-5.5-44.2-14.2-72.3
	c-40.1,13.5-66,28.4-64.2,32.9c1,1.9,2.1,3.7,3.2,5.5l0,0c17-8.1,34.5-14.9,52.4-20.5c7,20.9,12.8,46.1,13.6,55.4 M430.1,147.2
	c2.1-0.6,4.1-1.3,6.1-2c8.3-4.1,7.6-24.8,3.3-50c-2.9-17.2-10.2-40.1-10.2-40.1c8.1-2.1,16.3-3.7,24.6-4.8c18.7-2.6,25.3,0,27.2,2.2
	c-1-3.3-2.3-6.5-3.7-9.5c-3.1-3.1-12.6-5.5-27.7-4.6c-8.5,0.6-16.9,2-25.1,4c-2.9-7.5-6.3-14.8-10.1-21.9
	c-7.3-13.5-14.1-20-20.4-18.9l0,0c-2.3,0.5-4.6,1.1-6.9,1.8l0,0c1.8,1.9,7.1,5.6,14.7,20.6c3.6,7.2,6.7,14.5,9.5,22
	c0,0-13.4,4.2-25.5,9.5c-27.6,12.2-50,28.2-49,39.2l0,0c0.5,1.8,1.1,3.6,1.7,5.4l0,0c2.7-9.1,25.5-21.9,51.2-32.2
	c11.4-4.6,26.1-9.1,26.1-9.1c4.4,13.3,8,26.7,10.9,40.4C427.8,103.5,435.5,141.4,430.1,147.2 M463.3,22.8L463.3,22.8
	c-2.5-2.1-11.4-4.9-24.4-5.1C431.7,7.1,424,1.6,417.2,0.4c-3.2-0.3-6.4-0.4-9.6-0.4l0,0c4.3,1,13.9,7.8,24.9,28.3
	c24.3-3.4,35.8,0.8,38.8,4.3l0,0C469,29.1,466.3,25.8,463.3,22.8z M484.5,71.8c-0.1-3.3-0.5-6.5-1.1-9.8l0,0
	c-0.6-0.7-6.8-3.1-37.6,3.8c11.3,49.2,5.8,68.9,0.2,74.7c2.5-1.4,4.9-2.9,7.2-4.6c6-5.5,11.6-23,6.5-59.3
	C474.3,73.6,482.7,72.7,484.5,71.8L484.5,71.8z"/></svg>
