<svg xmlns="http://www.w3.org/2000/svg" width="2435" height="521" viewBox="0 0 2435 521"><path fill="currentColor" d="M2065.188 32.688c.77 0 1.55 0 2.35.01 11.38.05 22.4.4 33.46 3.3 1.18.3 1.18.3 2.37.6 25.07 6.52 45.55 18.25 65.63 34.4 3.64-1.56 6.14-3.8 9.07-6.43 31.3-26.98 73.05-33.49 112.93-31.57 30.81 2.55 62.71 16.59 85 38 1.35 1.13 2.71 2.26 4.07 3.38 22.98 20.17 35.52 51.13 37.73 81.04.34 5.92.34 11.83.32 17.75 0 1.38 0 2.76.01 4.14 0 3.76-.01 7.51-.01 11.27-.01 4.06 0 8.13 0 12.19 0 7.03-.01 14.06-.01 21.09-.01 10.17-.01 20.33-.01 30.49-.01 16.49-.01 32.99-.02 49.48-.01 16.01-.02 32.03-.02 48.04v3c0 4.95-.01 9.91-.01 14.87-.01 41.09-.03 82.18-.05 123.26h-81l-.04-30.5c-.05-32.21-.11-64.42-.19-96.64l-.03-15.01c0-1.49 0-1.49-.01-3.02-.03-16.12-.06-32.25-.08-48.38-.02-16.55-.05-33.1-.1-49.65-.02-10.21-.04-20.42-.05-30.63 0-7.01-.02-14.01-.04-21.01-.02-4.04-.03-8.08-.02-12.12 0-3.7-.01-7.41-.03-11.11-.01-1.96 0-3.93.01-5.89-.11-13.77-4.02-24.48-13.42-34.66-13.97-13.27-33.53-18.99-52.51-18.63-17.78 1.28-36.92 7.41-49.15 21.11-8.38 11.31-10.64 20.71-10.62 34.7 0 1.39-.01 2.78-.01 4.17-.02 3.8-.02 7.6-.02 11.41-.01 4.1-.02 8.21-.04 12.31-.02 7.11-.03 14.22-.04 21.33-.02 10.28-.04 20.56-.07 30.84-.05 16.68-.08 33.36-.12 50.04-.03 16.2-.06 32.4-.1 48.6 0 1-.01 2-.01 3.03l-.03 15.03c-.11 41.56-.2 83.12-.28 124.68h-81l-.03-30.67c-.03-32.39-.08-64.78-.15-97.18l-.03-15.1v-3.03q-.045-24.33-.06-48.66c-.01-16.64-.04-33.28-.08-49.93-.03-10.27-.04-20.53-.04-30.8 0-7.04-.01-14.09-.04-21.13-.01-4.06-.02-8.13-.01-12.19.01-3.72-.01-7.45-.03-11.17-.01-1.98 0-3.95.01-5.92-.13-13.96-4.89-24.54-14.75-34.44-11.29-9.75-26.94-15.88-41.79-16.78-.85-.05-1.71-.1-2.6-.16-19.43-.6-39.39 5.52-53.71 18.97-10.95 11.7-13.15 24.66-13.09 40.24 0 1.38-.01 2.76-.02 4.14-.01 3.76-.01 7.52-.01 11.27 0 4.07-.02 8.13-.03 12.2-.02 7.03-.04 14.06-.04 21.1-.01 10.16-.03 20.33-.06 30.5-.04 16.5-.07 33-.09 49.49-.02 16.02-.05 32.05-.09 48.07v2.99c-.01 4.96-.02 9.92-.04 14.88-.09 41.1-.16 82.21-.22 123.31h-80c-.06-43.42-.12-86.85-.15-130.27 0-5.13-.01-10.26-.01-15.39v-3.1c-.02-16.52-.04-33.04-.07-49.56-.03-16.97-.04-33.93-.05-50.89 0-10.46-.02-20.92-.04-31.38-.02-7.18-.02-14.37-.02-21.55 0-4.14 0-8.27-.02-12.41q-.015-5.7 0-11.4c0-2-.01-4-.02-6 .13-28.29 11.35-56.15 30.38-77.05.88-.96.88-.96 1.77-1.95 13.64-14.78 28.86-25.89 47.23-34.05.61-.27 1.22-.55 1.85-.83 7.43-3.31 14.94-5.82 22.78-7.92.74-.2 1.48-.4 2.24-.6 12.42-3.16 24.57-4.02 37.32-3.96M138.618 32.88h2.84c3.13 0 6.25 0 9.38.01h6.74c6.09 0 12.18 0 18.27.01 6.37.01 12.74.01 19.11.01 10.69 0 21.37.01 32.06.01l33.01.03h12.28c28.23.01 56.46.03 84.69.05v81l-20.49.03c-21.67.03-43.33.08-64.99.15l-10.1.03h-2.03q-16.26.045-32.52.06c-11.13.02-22.26.04-33.39.08-6.25.03-12.5.04-18.75.04-5.89 0-11.77.02-17.66.05-2.15.01-4.31.01-6.47.01-2.95-.01-5.9.01-8.85.03l-2.57-.02c-10.23.14-18.9 4.48-26.18 11.54-9.95 11.56-15.95 28.18-15.28 43.51 1.92 16.81 6.35 33.8 20.16 44.93 9.27 6.05 17.5 7.14 28.47 7.06 1.42 0 2.84.01 4.26.02q4.56.015 9.12 0c4.83-.02 9.66-.01 14.49.01q14.085.045 28.17.03c11.93 0 23.85.01 35.78.05 4 .01 8.01.02 12.01.01 34.69-.08 65.4 4.28 92.82 27.38.94.79 1.89 1.58 2.86 2.4 26.48 23.16 42.5 57.69 45.14 92.6 2.09 39.33-7.7 76.97-34 107-.64.78-1.29 1.56-1.95 2.36-18.84 22.25-47.38 35.61-76.05 38.64-7.55.48-15.13.38-22.7.34h-6.65c-5.97 0-11.94-.01-17.91-.04-6.25-.01-12.51-.02-18.77-.02-10.49-.01-20.97-.03-31.46-.05q-16.185-.045-32.37-.06c-.66-.01-1.33-.01-2.02-.01-3.35 0-6.7-.01-10.04-.01-27.7-.03-55.39-.09-83.08-.15v-81c6.65-.01 13.3-.03 20.15-.04 21.94-.05 43.89-.12 65.83-.2 13.31-.04 26.61-.08 39.92-.11 11.6-.02 23.2-.05 34.8-.1 6.14-.02 12.28-.04 18.42-.05 5.78 0 11.57-.02 17.35-.05 2.12-.01 4.24-.02 6.36-.01 2.9 0 5.8-.02 8.7-.04 1.25.01 1.25.01 2.53.01 11.2-.13 18.51-4.5 26.59-11.93 11.11-11.63 14.88-28.09 14.77-43.67-.5-15.66-6.27-30.33-17.12-41.68-9.49-8.79-18.7-9.43-31.21-9.4-1.41-.01-2.82-.01-4.23-.02-3.03-.01-6.06-.01-9.09-.01-4.8-.01-9.61-.02-14.42-.05-11.94-.04-23.89-.08-35.84-.1-9.27-.01-18.55-.04-27.82-.08-3.99-.02-7.97-.03-11.96-.03-39.66.01-73.23-7.04-102.18-35.85-25.99-26.65-38.77-62.11-38.8-98.96v-2.17c.02-11.07.55-21.69 3.25-32.46.17-.69.33-1.38.51-2.09 5.95-24.07 17.78-44.74 34.49-62.91.92-1.03.92-1.03 1.86-2.07 20.86-22.15 51.67-34.15 81.76-34.05M763 33c37.64-.16 37.64-.16 53.51-.2 10.92-.02 21.84-.05 32.76-.1 7.96-.04 15.92-.07 23.87-.08 4.21 0 8.42-.01 12.62-.04 32.42-.22 63.05 3.85 88.24 26.42 1.22 1.05 1.22 1.05 2.47 2.11 28.22 24.55 43.55 58.85 46.53 95.89 2.32 37.07-8.47 74.71-33 103-.67.81-1.35 1.61-2.04 2.45-18.82 21.86-44.52 35.37-72.96 39.55-2.1.09-4.2.13-6.3.13-1.87.01-1.87.01-3.78.01h-4.1c-1.46 0-2.91.01-4.36.01-3.12.01-6.23.02-9.35.02-4.94 0-9.88.02-14.82.04-1.69.01-3.39.01-5.08.02-.85 0-1.7.01-2.57.01-11.5.04-22.99.07-34.48.09-7.76 0-15.52.03-23.28.07-4.1.01-8.21.03-12.31.02-3.86 0-7.72.01-11.58.04q-2.115.015-4.23 0c-13.63-.06-23.66 2.85-33.6 12.28C733.71 326.8 730.02 342.81 730 359c.94 15.84 6.67 31.39 18.38 42.44 8.73 7.26 17.57 8.71 28.62 8.72 1.34.01 1.34.01 2.71.01 2.99.02 5.99.03 8.98.04q3.225 0 6.45.03l17.49.06c6.09.03 12.19.05 18.28.08 11.54.05 23.08.09 34.62.14 13.13.05 26.27.1 39.41.16 27.02.11 54.04.22 81.06.32v80c-28.92.07-57.84.12-86.75.15-3.42.01-6.84.01-10.27.01-1.02.01-1.02.01-2.06.01q-16.5.015-33 .06c-11.3.03-22.6.05-33.9.05-6.34.01-12.68.02-19.02.04-5.98.02-11.96.02-17.94.02-2.18 0-4.37.01-6.55.02-34.87.17-64.22-11.26-89.26-35.67-16.69-16.87-27.88-38.54-34-61.31-.2-.74-.4-1.48-.6-2.24-2.99-11.73-4.01-23.24-3.96-35.33v-2.06c.06-10.84.64-21.21 3.31-31.75.19-.78.39-1.57.59-2.37 4.46-17.55 11.58-34.05 22.41-48.63.87-1.2.87-1.2 1.75-2.42 19.29-25.44 46.5-42.9 78.25-47.58 2.09-.09 4.19-.14 6.28-.14l3.76-.03h4.08c1.45-.01 2.89-.02 4.34-.02 3.1-.02 6.2-.03 9.31-.04l14.74-.06c13.97-.08 27.94-.14 41.91-.19 7.72-.03 15.44-.06 23.16-.1 4.88-.03 9.76-.05 14.63-.06 3.05-.01 6.09-.03 9.13-.05 1.41 0 2.81-.01 4.22-.01 13.16-.01 24.72-1.49 34.91-10.62 12.9-14.12 16.42-31.71 15.71-50.24-1.05-14.26-7.48-28.86-18.18-38.44-10.2-7.55-19.57-8.3-31.94-8.32l-4.2-.03c-3.78-.03-7.56-.04-11.35-.05-3.95-.02-7.91-.05-11.87-.07-7.49-.05-14.97-.09-22.46-.12-10.12-.04-20.25-.11-30.37-.17-15.94-.09-31.87-.16-47.81-.24zM1649.446 32.773h5.83c5.24 0 10.48.01 15.72.02 5.49.02 10.98.02 16.47.02 10.38.01 20.76.02 31.14.04 11.82.03 23.65.04 35.47.05 24.31.02 48.62.05 72.92.1v81l-17.46.03q-28.56.045-57.12.15c-11.54.04-23.09.07-34.63.09-10.06.01-20.13.04-30.19.08-5.33.02-10.65.04-15.98.04-5.02 0-10.04.02-15.06.05-1.83.01-3.67.01-5.51 0-13.67-.03-23.51 1.21-33.72 11.01-11.24 12.32-15.91 28.28-15.51 44.77 1.03 15.64 6.15 31.18 18.18 41.78 9.14 7.86 17.51 9.44 29.41 9.43l3.67.03c3.29.03 6.58.04 9.88.04 3.45.01 6.9.04 10.35.06 6.52.05 13.05.08 19.57.1 8.16.03 16.32.08 24.49.13 14.54.09 29.09.15 43.63.21v81c-8.98.02-17.96.05-27.21.08q-9.63.03-19.26.09c-8.31.04-16.63.08-24.94.1a4340 4340 0 0 0-19.75.08c-3.48.02-6.96.04-10.44.04-3.9 0-7.8.03-11.69.06-1.72-.01-1.72-.01-3.47-.01-11.11.14-18.89 3.31-26.91 11.01-11.24 12.32-15.91 28.28-15.51 44.77 1.03 15.64 6.15 31.18 18.18 41.78 10.91 9.39 21.73 9.44 35.47 9.43l5.62.03c5.06.03 10.13.04 15.19.04 5.3.01 10.6.04 15.91.06 10.03.05 20.06.08 30.08.1 11.43.03 22.85.07 34.27.11 23.49.1 46.98.17 70.46.23v81c-46.42.08-46.42.08-65.95.09-13.45.02-26.91.03-40.37.06-9.8.02-19.6.03-29.4.04-5.19 0-10.37 0-15.56.02-4.89.01-9.78.02-14.68.01-1.78 0-3.56.01-5.34.02-32.59.13-62.4-6.43-87.7-28.24-.93-.78-1.87-1.56-2.83-2.36-25.61-22.19-39.98-54.42-44.17-87.64-.74-16.89-1.4-34.59 3-51 .2-.77.39-1.53.59-2.32 5.58-21.76 15.32-40.24 29.41-57.68-1.45-3.37-3.27-5.47-5.92-7.98-.78-.75-1.56-1.51-2.36-2.28-1.62-1.56-3.25-3.11-4.89-4.66-16.6-16.13-19.63-37.48-20.19-59.78-.05-3.87-.05-7.75-.03-11.63.02-2.94 0-5.87-.02-8.81-.02-16.17 1.67-31.45 6.98-46.8.34-1.01.68-2.01 1.04-3.05 6.85-19.35 17.36-35.11 31.39-50.01.66-.74 1.33-1.48 2.01-2.24 22.99-24.6 54.91-33.12 87.44-32.99M1134 34c27.98-.07 55.96-.12 83.95-.16 12.99-.01 25.99-.03 38.98-.07 11.33-.03 22.66-.05 34-.05 5.99-.01 11.98-.02 17.98-.04 5.65-.02 11.31-.02 16.96-.02 2.07 0 4.13-.01 6.19-.02 15.59-.08 31.15.74 46 5.98.73.26 1.46.51 2.21.77 13.7 4.95 25.63 12.26 36.73 21.61.89.74 1.79 1.48 2.71 2.25 23.48 20.23 38.81 51.08 42.29 81.75.11.89.22 1.79.33 2.71 3.76 34.97-5.77 71.46-27.85 99.03-19.13 23.12-42.27 37.49-71.48 44.26-.67.16-1.33.32-2.02.49-6.92 1.56-13.54 1.79-20.61 1.77-1.23 0-2.45 0-3.71.01-2.65 0-5.29.01-7.93 0-4.19 0-8.38.02-12.56.03-11.9.05-23.8.07-35.7.08q-9.885 0-19.77.06c-4.15.02-8.31.02-12.46.01-3.2-.01-6.4.02-9.61.04l-3.44-.03c-11.24.12-20.09 3.69-28.19 11.54-8.78 10.03-13.08 22.42-13.16 35.64 0 .65-.01 1.29-.01 1.95-.02 2.14-.03 4.27-.04 6.41 0 1.54-.01 3.08-.03 4.61l-.06 12.5c-.03 4.36-.05 8.71-.08 13.07-.05 8.24-.09 16.49-.14 24.73-.06 11.15-.12 22.29-.19 33.43-.1 17.56-.19 35.11-.29 52.66h-81c-.12-38.53-.12-38.53-.15-54.78a9386 9386 0 0 0-.08-33.56c-.03-8.15-.05-16.3-.05-24.45-.01-4.3-.02-8.61-.04-12.91-.22-45.78 6.96-85.5 40.32-119.3 20.61-20.64 49.07-33.09 78.31-33.28 1.67 0 1.67 0 3.37.01 1.2-.01 2.41-.01 3.65-.02 3.27-.01 6.53-.01 9.8-.02 3.44 0 6.88-.02 10.32-.04 10.2-.04 20.41-.08 30.62-.1 7.95-.01 15.9-.04 23.85-.08 3.41-.02 6.83-.03 10.24-.03 3.81 0 7.61-.02 11.42-.04 1.11.01 2.23.01 3.38.01 12.01-.11 21.34-3.2 30.2-11.41 9.56-10.01 13.87-23.25 14.22-36.94-.36-13.43-4.18-27.4-13.55-37.47-8.72-7.6-17.35-10.9-28.8-10.87-.88 0-1.76-.01-2.66-.02-2.94-.01-5.87-.02-8.81-.02l-23.48-.08c-5.98-.02-11.96-.05-17.94-.07q-16.98-.075-33.96-.12c-12.88-.04-25.77-.09-38.66-.14-26.51-.1-53.01-.19-79.52-.27zM479 33h81v458c-27.58 1.15-27.58 1.15-38.59 1.1-1.82 0-1.82 0-3.67-.01-3.74 0-7.49-.01-11.24-.03-2.59 0-5.18-.01-7.77-.01-6.24-.01-12.49-.03-18.73-.05-.19-24.75-.35-49.5-.5-74.25-.01-.97-.01-1.94-.02-2.94-.51-84.29-.57-168.58-.54-252.88v-7.13q.015-60.9.06-121.8"/></svg>