<svg xmlns="http://www.w3.org/2000/svg" viewBox="35 4 134 194"><path fill="#b00937" d="M77 8.1c-18.9 1.6-36.9 7.6-40 13.4-1.2 2.3-1.2 3 .1 5.3 1.6 2.9 8.9 7.6 13.3 8.6l2.8.7-2.7-2.4c-8.5-7.3 10.3-13.8 40-13.8 17.6 0 31 1.9 37.9 5.2 6.6 3.2 7.9 5.4 4.6 7.9-1.3 1-3.7 2.1-5.2 2.4-4.8 1-3.1 2.4 3.7 3.1C144.1 39.9 165 31 165 24.3c0-2.4-4.3-6.5-9.5-9-13.7-6.8-46.6-9.8-78.5-7.2m2 39c-16.3 1.9-27.5 6-28.6 10.5-1 4 2.9 7.4 10.4 9 2.3.4 2.4.3 1-.6-1-.6-1.8-1.9-1.8-2.9 0-7.8 46.5-10.5 61.8-3.6 6.1 2.8 6.2 4 .8 7.1l-3.7 2.1 4.5.6c5.5.8 9.1.2 17.1-2.5 19.1-6.7 10.9-15.8-17.5-19.4-12.3-1.5-31.9-1.7-44-.3m-2.7 38.8c-12.3 3-15.6 7.1-9 11.1 4 2.5 5 2.5 4.2.1-.5-1.5.2-2.4 2.7-3.8C77 91.8 80 91.5 95 91.5s18 .3 20.8 1.8c3.6 2 3.7 3.6.3 5.3-2.1 1.1-2.1 1.1.9 1.7 7 1.4 19.2-2.9 19.8-7 .4-3-3.3-5.2-12.6-7.4-10.5-2.5-37.5-2.5-47.9 0m12.2 36.7c-5.2.8-11.5 3.5-11.5 5 0 .8 1.2 1.9 2.6 2.4 3.2 1.2 3.7 1.2 2.9.1-.3-.6.5-1.6 1.7-2.3 3.2-1.7 22.5-1.7 25.7.1 1.7.9 2 1.5 1.1 2.1-2.5 1.6 1.1 2.1 6.5 1 4.4-.9 5.5-1.5 5.5-3.1 0-3.4-6.1-5.1-19.5-5.4-6.6-.2-13.3-.1-15 .1m4.5 33.1c-7.9 3.4-11.4 9-11.3 18.1.1 10.3 5.7 16.8 16.9 19.3 4.7 1.1 5.6 1 10.7-1.4 9.6-4.4 13.9-14.6 10.3-24.1-2.5-6.6-4.4-7.9-9.9-6.6-4.5 1-9.9 3.7-14.6 7.2-3.4 2.6-4.4 2.2-2.6-1.2 2-3.9 7.5-8.2 12.2-9.6l3.8-1.2-2.8-1.1c-3.8-1.5-8.4-1.3-12.7.6"/></svg>
