<?xml version="1.0" encoding="iso-8859-1"?>
<!-- Generator: Adobe Illustrator 16.0.4, SVG Export Plug-In . SVG Version: 6.00 Build 0)  -->
<!DOCTYPE svg PUBLIC "-//W3C//DTD SVG 1.1//EN" "http://www.w3.org/Graphics/SVG/1.1/DTD/svg11.dtd">
<svg version="1.1" id="Layer_1" xmlns="http://www.w3.org/2000/svg" xmlns:xlink="http://www.w3.org/1999/xlink" x="0px" y="0px"
	 width="630px" height="200px" viewBox="0 0 630 200" style="enable-background:new 0 0 630 200;" xml:space="preserve">
<g>
	<rect style="fill:#654079;" width="630" height="200"/>
	<path style="fill:#FFFFFF;" d="M208.771,49.792c-8.619,0-16.642,0-24.723,0c0,33.846,0,67.103,0,100.359
		c34.069,0,67.535,0,101.224,0c0-7.354,0-14.07,0-22.021c-25.746,0-50.835,0-76.501,0C208.771,101.57,208.771,75.832,208.771,49.792
		z"/>
	<path style="fill:#FFFFFF;" d="M150.662,49.555c-32.941,0-65.889,0-99.4,0c0,34.037,0,67.298,0,100.759c8.448,0,16.319,0,25.03,0
		c0-7.045,0-13.658,0-20.826c3.273,0,5.7,0,8.134,0c20.281,0,40.576-0.164,60.864,0.098c5.018,0.072,8.461-1.613,11.702-5.221
		C175.941,103.186,172.964,67.213,150.662,49.555z M142.542,106.385c-22.216,0-43.692,0-65.745,0c0-11.065,0-22,0-33.445
		c21.495,0,43.266,0,65.462,0C148.183,83.815,147.953,94.867,142.542,106.385z"/>
	<path style="fill:#FFFFFF;" d="M354.671,49.549c-21.121,33.341-42.177,66.598-63.868,100.85c10.305,0,19.016,0,28.166,0
		c3.627-5.273,7.326-10.645,11.078-16.109c26.415,0,52.193,0,78.018,0c3.424,5.549,6.742,10.914,9.799,15.873
		c10.01,0,19.271,0,29.675,0c-21.54-34.193-42.472-67.417-63.39-100.613C374.133,49.549,364.569,49.549,354.671,49.549z
		 M343.415,110.734c8.743-14.05,17.094-27.484,26.054-41.888c8.639,14.267,16.753,27.694,25.332,41.888
		C377.451,110.734,360.936,110.734,343.415,110.734z"/>
	<path style="fill:#FFFFFF;" d="M502.847,108.045c-15.769-19.993-31.098-39.428-46.073-58.431c-10.993,0-21.153,0-33.039,0
		c21.613,26.965,42.196,52.671,62.977,78.606c-5.359,7.242-10.495,14.201-16.359,22.119c10.98,0,20.485,0,30.213,0
		c26.054-33.236,52.074-66.446,78.987-100.791c-12.062,0-22.236,0-32.534,0C532.285,69.063,517.645,88.433,502.847,108.045z"/>
	<path style="fill:#654079;" d="M2,200.283c209.998,0,415.996,0,626,0c0-0.095,0-0.188,0-0.283H2C2,200.095,2,200.188,2,200.283z"/>
	<path style="fill:#654079;" d="M628-0.283c-210.004,0-416.002,0-626,0C2-0.188,2-0.094,2,0h626C628-0.094,628-0.188,628-0.283z"/>
</g>
</svg>
